<svg xmlns="http://www.w3.org/2000/svg" x="0px" y="0px" width="100" height="100" viewBox="0,0,256,256">
<g fill="#000000" fill-rule="nonzero" stroke="none" stroke-width="1" stroke-linecap="butt" stroke-linejoin="miter" stroke-miterlimit="10" stroke-dasharray="" stroke-dashoffset="0" font-family="none" font-weight="none" font-size="none" text-anchor="none" style="mix-blend-mode: normal"><path d="M0,256v-256h256v256z" id="bgRectangle"></path></g><g fill="#ffffff" fill-rule="nonzero" stroke="none" stroke-width="1" stroke-linecap="butt" stroke-linejoin="miter" stroke-miterlimit="10" stroke-dasharray="" stroke-dashoffset="0" font-family="none" font-weight="none" font-size="none" text-anchor="none" style="mix-blend-mode: normal"><g transform="scale(4,4)"><path d="M21.0332,3.42773l-1.03906,12.14453l-11.96094,-3l7,13l-11,4l10,6l-9,6l10,2l-5,8c0,0 4.98841,-0.38431 7.94141,-0.69531c2.717,5.431 7.98344,9.12305 14.02344,9.12305c6.085,0 11.38398,-3.74714 14.08398,-9.24414l5.95117,0.81641l-2,-8l9,-4l-7,-5l8,-8l-10,-1l6.20313,-11.74609l-13.20312,1.74609l-1,-12l-10,7zM31.99805,19c6.607,0 11.98438,6.06167 11.98438,13.51367v3.49219c0.018,0 0.03278,-0.00586 0.05078,-0.00586c1.38,0 2.5,1.12 2.5,2.5c0,1.38 -1.12,2.5 -2.5,2.5c-0.018,0 -0.03278,-0.00586 -0.05078,-0.00586v1.49219c0,7.452 -5.37738,13.51367 -11.98437,13.51367c-6.607,0 -11.98242,-6.06167 -11.98242,-13.51367v-1.48828c-1.373,-0.008 -2.48437,-1.12209 -2.48437,-2.49609c0,-1.374 1.11137,-2.49005 2.48438,-2.49805v-3.48828c0,-7.454 5.37542,-13.51562 11.98242,-13.51562zM31.8418,24c-4.003,0 -6.58441,0.66827 -6.69141,0.69727l-1.44727,0.38281l0.76367,2.89648l1.44531,-0.37695c0.024,-0.006 2.34669,-0.59961 5.92969,-0.59961c3.606,0 5.82961,0.50381 5.84961,0.50781l1.46094,0.3418l0.68555,-2.92187l-1.46094,-0.3418c-0.103,-0.024 -2.55116,-0.58594 -6.53516,-0.58594zM27.53125,28.5c-2.757,0 -5,2.243 -5,5c0,2.757 2.243,5 5,5c1.988,0 3.695,-1.17437 4.5,-2.85937c0.805,1.685 2.51295,2.86133 4.50195,2.86133c2.757,0 5,-2.243 5,-5c0,-2.757 -2.243,-5 -5,-5c-1.988,0 -3.695,1.17438 -4.5,2.85938c-0.805,-1.685 -2.51295,-2.86133 -4.50195,-2.86133zM27.53125,30.5c1.654,0 3,1.346 3,3c0,1.654 -1.345,3 -3,3c-1.654,0 -3,-1.346 -3,-3c0,-1.654 1.346,-3 3,-3zM36.5332,30.50195c1.654,0 3,1.346 3,3c0,1.654 -1.345,3 -3,3c-1.654,0 -3,-1.346 -3,-3c0,-1.654 1.346,-3 3,-3zM37.0332,32c-0.55228,0 -1,0.44772 -1,1c0,0.55228 0.44772,1 1,1c0.55228,0 1,-0.44772 1,-1c0,-0.55228 -0.44772,-1 -1,-1zM27.0332,33c-0.55228,0 -1,0.44772 -1,1c0,0.55228 0.44772,1 1,1c0.55228,0 1,-0.44772 1,-1c0,-0.55228 -0.44772,-1 -1,-1zM34.49219,38.71289l-1.91602,0.57422l0.61523,2.04688c0.054,0.18 0.00133,0.37005 -0.13867,0.49805c-0.14,0.128 -0.33477,0.16375 -0.50977,0.09375l-2.13867,-0.85352l-0.74414,1.85547l2.14063,0.85547c0.296,0.118 0.60697,0.17578 0.91797,0.17578c0.612,0 1.21864,-0.22444 1.68164,-0.64844c0.701,-0.64 0.98003,-1.64178 0.70703,-2.55078zM32.08984,46c-3.859,0 -6.35012,0.67217 -6.45312,0.70117l-1.44336,0.39844l0.79102,2.88672l1.44336,-0.39062c0.022,-0.006 2.23911,-0.5957 5.66211,-0.5957c3.444,0 5.56889,0.49991 5.58789,0.50391l1.45703,0.35547l0.71094,-2.91602l-1.45703,-0.35352c-0.099,-0.024 -2.46183,-0.58984 -6.29883,-0.58984z"></path></g></g>
</svg>